<svg width="84" height="65" viewBox="0 0 84 65" fill="none" xmlns="http://www.w3.org/2000/svg">
<g clip-path="url(#clip0_1_6)">
<path d="M47.7093 19.7718L46.1128 18.5998C45.8633 18.4055 45.5442 18.3137 45.2247 18.3444C44.9053 18.3752 44.6113 18.5259 44.4068 18.7639L22.313 43.1652L22.6543 43.5286L28.1259 38.6764C27.9436 38.6058 27.7927 38.476 27.6995 38.3096C27.6063 38.1432 27.5767 37.9506 27.6158 37.7653C27.6549 37.58 27.7602 37.4138 27.9135 37.2955C28.0668 37.1772 28.2584 37.1142 28.4549 37.1176C28.6322 37.1176 28.8047 37.1722 28.9473 37.2735C29.0899 37.3747 29.1949 37.5173 29.247 37.6802L36.4613 31.2458C36.5718 31.1602 36.7094 31.1135 36.8513 31.1135C36.9932 31.1135 37.1308 31.1602 37.2412 31.2458L37.6068 31.5037C37.7305 31.5889 37.8829 31.6266 38.034 31.6092C38.1851 31.5919 38.324 31.5208 38.4233 31.4099L47.8555 21.2368C47.9557 21.1358 48.0322 21.0153 48.0797 20.8833C48.1272 20.7514 48.1446 20.6111 48.1307 20.4721C48.1168 20.3332 48.072 20.1987 47.9993 20.0778C47.9266 19.957 47.8276 19.8526 47.7093 19.7718Z" fill="#303030"/>
<path d="M58.092 26.6399C53.257 29.9485 47.8407 32.3903 42.1036 33.8478C36.4095 35.2405 30.5829 36.073 24.7137 36.3325C24.8319 37.1649 25.0444 37.9823 25.3474 38.7703C28.6621 41.6534 53.6196 36.7309 58.4941 31.035C59.5299 29.8512 58.092 26.6399 58.092 26.6399ZM28.4549 38.6765C28.291 38.6765 28.1308 38.6298 27.9945 38.5422C27.8583 38.4546 27.7521 38.3301 27.6893 38.1845C27.6266 38.0389 27.6102 37.8786 27.6422 37.724C27.6742 37.5694 27.7531 37.4274 27.869 37.316C27.9849 37.2045 28.1325 37.1286 28.2933 37.0979C28.454 37.0671 28.6206 37.0829 28.772 37.1432C28.9235 37.2035 29.0529 37.3057 29.1439 37.4368C29.235 37.5678 29.2836 37.7219 29.2836 37.8795C29.2852 37.9846 29.2649 38.089 29.2239 38.1864C29.1828 38.2838 29.1218 38.3723 29.0445 38.4466C28.9673 38.5209 28.8753 38.5796 28.774 38.6191C28.6727 38.6585 28.5642 38.6781 28.4549 38.6765Z" fill="#303030"/>
<path d="M4.87476 24.9523L5.06974 24.1436L8.23817 24.8351C8.49957 25.2995 8.66119 25.8097 8.71343 26.3353C8.77391 26.8921 8.73684 27.4546 8.60376 27.9996C8.44601 28.7558 8.08463 29.459 7.55574 30.0389C7.05255 30.5863 6.40374 30.9915 5.67905 31.2109C4.93214 31.4324 4.13774 31.4607 3.37584 31.2929C2.61228 31.1343 1.90845 30.7776 1.34073 30.2616C0.781713 29.7658 0.380292 29.1278 0.183039 28.4215C-0.035785 27.6543 -0.035785 26.8446 0.183039 26.0775C0.314014 25.5033 0.549147 24.9558 0.877656 24.4601C1.18858 24.0092 1.60621 23.6357 2.09628 23.3701L2.53499 24.0147C2.11493 24.2628 1.75436 24.5937 1.47708 24.9856C1.19979 25.3776 1.0121 25.8216 0.926402 26.2884C0.775275 26.8948 0.78786 27.5282 0.96296 28.1285C1.12671 28.6985 1.45151 29.2137 1.9013 29.617C2.36363 30.0468 2.94205 30.3432 3.57082 30.4725C4.18054 30.6372 4.82561 30.6372 5.43532 30.4725C6.0194 30.2871 6.544 29.9602 6.95861 29.5232C7.38469 29.0512 7.67833 28.4824 7.81165 27.8707C8.01215 27.1286 7.96092 26.3442 7.66541 25.6321L4.87476 24.9523Z" fill="#303030"/>
<path d="M11.7719 17.5803L8.93253 21.2253L10.1512 23.3232L9.59059 24.0499L5.08167 16.1388L5.60567 15.4473L14.7819 17.3459L14.2092 18.0726L11.7719 17.5803ZM10.9676 17.3928L6.09313 16.338L8.53038 20.5455L10.9676 17.3928Z" fill="#303030"/>
<path d="M10.9677 10.0208L11.6988 9.49341L16.3418 15.4707L20.1683 12.7165L20.6314 13.3142L16.0859 16.5841L10.9677 10.0208Z" fill="#303030"/>
<path d="M18.645 5.13334L19.4615 4.78174L22.6787 11.556L27.0292 9.65732L27.346 10.3371L22.179 12.5991L18.645 5.13334Z" fill="#303030"/>
<path d="M34.7065 7.82899L34.8893 8.56736L29.0155 9.89174L27.0657 1.89859L32.7689 0.621094L32.9395 1.34774L28.065 2.43772L28.7596 5.274L33.0492 4.30122L33.232 5.02787L28.9302 5.98893L29.6614 8.95413L34.7065 7.82899Z" fill="#303030"/>
<path d="M43.0785 8.12215L41.0434 5.54371C40.8161 5.5558 40.5882 5.5558 40.3609 5.54371L38.0699 5.61403L38.1552 8.21591H37.2534L36.9731 0.0117959L40.2147 7.57884e-05C41.1312 -0.0813302 42.0477 0.155664 42.7982 0.668125C43.1145 0.913069 43.3687 1.22391 43.5418 1.57718C43.7149 1.93045 43.8024 2.31693 43.7975 2.70743C43.833 3.28663 43.675 3.86159 43.3466 4.34825C42.9964 4.81537 42.5016 5.16405 41.933 5.34447L44.0656 8.08699L43.0785 8.12215ZM42.2254 4.26621C42.4445 4.07324 42.6144 3.83441 42.7222 3.56819C42.83 3.30197 42.8726 3.01548 42.8469 2.73087C42.8532 2.44475 42.7918 2.161 42.6672 1.90109C42.5426 1.64119 42.3582 1.41194 42.1279 1.23069C41.5663 0.864413 40.8909 0.694774 40.2147 0.750166L37.8993 0.832207L38.0455 4.93426L40.3122 4.86394C41.0034 4.88854 41.6812 4.67676 42.2254 4.26621V4.26621Z" fill="#303030"/>
<path d="M49.525 5.94212L49.0863 8.74324L48.1967 8.61432L48.6476 5.86008L46.1251 0L47.0756 0.140642L49.2326 5.13343L52.8884 0.996214L53.7415 1.17202L49.525 5.94212Z" fill="#303030"/>
<path d="M61.5773 5.44998L62.6375 6.77436L62.1744 7.12597L61.1142 5.76643L60.444 7.30177L59.9321 7.09081L60.6146 5.55547L58.8597 5.77815V5.21558L60.5902 5.02806L59.5178 3.70368L59.9931 3.35208L60.9314 4.68817L61.5895 3.14111L62.1135 3.35208L61.492 4.92258L63.2468 4.68817V5.26246L61.5773 5.44998Z" fill="#303030"/>
<path d="M65.6475 14.8962C65.3597 14.4695 65.1802 13.9838 65.1235 13.4781L65.8425 13.1734C65.8964 13.638 66.0544 14.0858 66.3055 14.486C66.5778 14.9348 66.9329 15.332 67.3536 15.658C67.7879 16.058 68.3422 16.3164 68.9378 16.3964C69.153 16.4156 69.3698 16.384 69.5694 16.3043C69.769 16.2247 69.9454 16.0994 70.0833 15.9393C70.1844 15.8321 70.2614 15.706 70.3096 15.5689C70.3578 15.4318 70.3762 15.2866 70.3636 15.1424C70.3233 14.8567 70.2238 14.5817 70.0711 14.3337C69.8421 13.9739 69.594 13.6258 69.3277 13.2906C69.0033 12.8818 68.7101 12.4509 68.4503 12.0013C68.2518 11.6649 68.143 11.2864 68.1335 10.8997C68.1326 10.4653 68.3024 10.0467 68.6087 9.72764C68.8743 9.41838 69.2247 9.18693 69.6202 9.05959C70.0621 8.93684 70.531 8.93684 70.9729 9.05959C71.5422 9.23865 72.0684 9.52558 72.5205 9.90344C72.8957 10.2036 73.2277 10.5504 73.5076 10.9348C73.7665 11.2913 73.9602 11.6877 74.0804 12.1068L73.3858 12.4584C73.2646 12.0677 73.0839 11.6965 72.8496 11.3567C72.6161 11.0534 72.3415 10.7814 72.0331 10.548C71.6052 10.1499 71.0526 9.89856 70.4611 9.83312C70.2437 9.81564 70.0252 9.8504 69.8252 9.93428C69.6253 10.0182 69.4501 10.1485 69.3156 10.3136C69.2119 10.4192 69.1332 10.5451 69.0848 10.6827C69.0364 10.8202 69.0195 10.9662 69.0353 11.1106C69.0638 11.4062 69.164 11.6912 69.3277 11.9427C69.4983 12.2123 69.7421 12.5639 70.0711 12.9858C70.3973 13.3852 70.6906 13.8084 70.9485 14.2516C71.1513 14.587 71.2644 14.9656 71.2775 15.3533C71.2784 15.7876 71.1086 16.2062 70.8023 16.5253C70.5357 16.8389 70.18 17.071 69.7786 17.1934C69.3376 17.3215 68.867 17.3215 68.426 17.1934C67.8527 17.0149 67.3224 16.728 66.8661 16.3495C66.3742 15.9378 65.9617 15.4458 65.6475 14.8962V14.8962Z" fill="#303030"/>
<path d="M77.9068 16.6075L76.1886 14.2635L76.8223 13.8298L80.7828 19.268L80.1491 19.7016L78.4309 17.3576L72.0696 21.6355L71.5578 20.9205L77.9068 16.6075Z" fill="#303030"/>
<path d="M75.1771 26.2414C75.3947 25.5331 75.8174 24.899 76.3958 24.4131C76.9616 23.9257 77.6509 23.5902 78.3943 23.4403C79.1522 23.273 79.9425 23.3013 80.6853 23.5224C81.4023 23.7503 82.045 24.1543 82.5498 24.6944C83.0748 25.2752 83.432 25.9784 83.5857 26.7337C83.7875 27.4752 83.7875 28.2542 83.5857 28.9957C83.3621 29.7014 82.9404 30.334 82.367 30.824C81.7856 31.3245 81.0793 31.6718 80.3169 31.832C79.5546 31.9922 78.7621 31.9599 78.0165 31.7382C77.2941 31.5213 76.6486 31.1155 76.152 30.5662C75.6294 29.9884 75.2724 29.2895 75.1162 28.5386C74.93 27.7806 74.951 26.9893 75.1771 26.2414V26.2414ZM76.7735 29.9684C77.1804 30.4141 77.7076 30.7427 78.2968 30.9178C78.9041 31.0872 79.5458 31.1073 80.1633 30.9762C80.7807 30.8452 81.3541 30.5672 81.8308 30.1677C82.2806 29.7697 82.6128 29.2642 82.7936 28.7027C82.9635 28.1097 82.9801 27.4858 82.8421 26.8853C82.704 26.2847 82.4154 25.7257 82.0014 25.2569C81.5767 24.8092 81.0333 24.481 80.4294 24.3076C79.8145 24.1506 79.1676 24.1506 78.5527 24.3076C77.9323 24.4221 77.3579 24.7024 76.8954 25.1163C76.4415 25.5157 76.1087 26.0261 75.9327 26.593C75.7672 27.1881 75.7672 27.8146 75.9327 28.4097C76.0661 28.9911 76.3561 29.5287 76.7735 29.9684V29.9684Z" fill="#303030"/>
<path d="M74.2509 39.8486L77.4072 38.6765C77.4072 38.4656 77.4803 38.2546 77.5412 38.0319L78.1384 35.9106L75.5549 35.266L75.7864 34.4338L84.0243 36.5552L83.1957 39.5204C83.009 40.3856 82.5078 41.1585 81.7821 41.7003C81.4486 41.9231 81.0661 42.0686 80.6644 42.1255C80.2627 42.1825 79.8528 42.1492 79.4667 42.0285C78.8786 41.9058 78.3516 41.5939 77.9728 41.1443C77.5939 40.6947 77.3858 40.1343 77.3828 39.5555L74.0194 40.7276L74.2509 39.8486ZM78.3333 40.1767C78.4761 40.4258 78.6698 40.6445 78.9027 40.8198C79.1356 40.9951 79.4029 41.1232 79.6886 41.1966C79.9744 41.2699 80.2725 41.2869 80.5653 41.2466C80.858 41.2063 81.1393 41.1095 81.3921 40.962C81.93 40.5465 82.2971 39.9609 82.4279 39.3094L83.0129 37.1998L78.8817 36.1333L78.2968 38.2429C78.072 38.8716 78.0849 39.5563 78.3333 40.1767V40.1767Z" fill="#303030"/>
<path d="M69.8761 47.3964L69.2546 46.9393L72.9105 42.3098L79.7105 47.2674L76.1764 51.7563L75.5549 51.2992L78.5406 47.5136L76.1033 45.7438L73.4345 49.1309L72.8252 48.6856L75.5549 45.2985L73.0324 43.4584L69.8761 47.3964Z" fill="#303030"/>
<path d="M67.0245 56.7373L65.2819 56.8311V56.2685L67.0245 56.2568L66.0862 54.8621L66.5614 54.5691L67.4876 55.9755L68.2431 54.405L68.7671 54.6746L67.9385 56.1513L69.6811 56.0576V56.6319H67.9141L68.8524 58.0266L68.3772 58.3196L67.451 56.9131L66.6467 58.4368L66.1349 58.1555L67.0245 56.7373Z" fill="#303030"/>
<path d="M51.1824 55.7996L52.6569 56.5849C52.9041 56.1282 53.2491 55.727 53.6692 55.4078C54.0893 55.0887 54.575 54.8587 55.0942 54.7331C55.5785 54.5879 56.0879 54.5361 56.5931 54.5807C57.0314 54.6131 57.4525 54.7589 57.8117 55.0027C58.1364 55.2381 58.3753 55.5663 58.4941 55.9403C58.641 56.4029 58.6152 56.9004 58.421 57.3467C58.1152 57.9531 57.703 58.5042 57.2024 58.9758C57.6042 59.1834 57.9768 59.4394 58.3114 59.7376C58.5411 59.966 58.7122 60.243 58.811 60.5463C58.8734 60.7828 58.8773 61.03 58.8223 61.2682C58.7672 61.5064 58.6549 61.7288 58.4941 61.9176C58.1688 62.3684 57.6834 62.6893 57.1293 62.82C56.6427 62.9985 56.1048 62.9985 55.6182 62.82C55.4018 62.7305 55.21 62.594 55.0577 62.4211C54.9055 62.2482 54.797 62.0438 54.7408 61.8238C54.613 61.4369 54.6435 61.0178 54.8261 60.6518C55.1058 60.119 55.4719 59.6323 55.9107 59.2102L52.9738 57.6397C52.8617 58.1916 52.837 58.7567 52.9006 59.3157H52.1573C52.1072 58.6273 52.1899 57.9359 52.401 57.2764L50.8655 56.456L51.1824 55.7996ZM53.3028 56.9717L56.5322 58.6945C56.9554 58.3058 57.3058 57.8499 57.568 57.3467C57.7019 57.0069 57.7019 56.6317 57.568 56.2919C57.5127 56.0888 57.4058 55.9022 57.2569 55.7487C57.108 55.5953 56.9218 55.4799 56.715 55.4129C56.209 55.2485 55.661 55.2485 55.1551 55.4129C54.7417 55.5178 54.3572 55.7085 54.0288 55.9718C53.7003 56.235 53.4359 56.5643 53.254 56.9365L53.3028 56.9717ZM57.8848 61.6597C57.9645 61.5302 58.0144 61.3858 58.0312 61.2362C58.048 61.0866 58.0313 60.9353 57.9823 60.7924C57.9077 60.561 57.7735 60.3514 57.5924 60.183C57.2822 59.9313 56.9428 59.715 56.5809 59.5384C56.2114 59.8898 55.8881 60.2834 55.6182 60.7104C55.4709 60.9766 55.4359 61.2873 55.5207 61.5777C55.5593 61.7118 55.6271 61.8365 55.7195 61.9436C55.812 62.0506 55.9269 62.1376 56.0569 62.1988C56.3671 62.3113 56.7094 62.3113 57.0196 62.1988C57.3509 62.1138 57.6402 61.9187 57.8361 61.648L57.8848 61.6597Z" fill="#303030"/>
<path d="M36.3273 64.8359L36.4979 56.6318H37.3631L37.2291 63.1951L40.69 57.7335H41.1165L44.358 63.2889L44.4799 56.7608H45.3451L45.1867 64.9649H44.4433L40.8606 58.8352L37.0706 64.8477L36.3273 64.8359Z" fill="#303030"/>
<path d="M32.0865 56.2568C32.6438 56.7676 33.0425 57.4172 33.2383 58.1333C33.4341 58.8493 33.4193 59.6036 33.1954 60.312C32.9952 61.0373 32.5953 61.6973 32.0377 62.2223C31.4959 62.7345 30.8166 63.0916 30.0758 63.2537C29.2942 63.4233 28.4807 63.3991 27.7116 63.1834C26.9451 63.0033 26.2399 62.636 25.6643 62.1169C25.1154 61.6126 24.723 60.9714 24.531 60.2651C24.3436 59.5349 24.3574 58.7703 24.5711 58.0468C24.7848 57.3233 25.191 56.666 25.7496 56.1396C26.2818 55.6287 26.9467 55.2644 27.6751 55.0848C28.4525 54.9157 29.262 54.9399 30.027 55.1551C30.8014 55.3439 31.5113 55.7236 32.0865 56.2568V56.2568ZM27.931 55.8466C27.3349 55.9801 26.79 56.2725 26.3589 56.6904C25.9101 57.1204 25.5901 57.659 25.4328 58.2492C25.2628 58.8358 25.2628 59.4558 25.4328 60.0424C25.5765 60.613 25.8849 61.1331 26.3224 61.5426C26.7812 61.9741 27.3477 62.2849 27.9675 62.445C28.5873 62.5968 29.2367 62.5968 29.8564 62.445C30.453 62.304 30.9998 62.0127 31.4406 61.6012C31.8871 61.1694 32.2067 60.6316 32.3668 60.0424C32.5371 59.4519 32.5371 58.828 32.3668 58.2375C32.2108 57.669 31.8994 57.151 31.465 56.7373C31.0037 56.3052 30.432 55.9979 29.8077 55.8466C29.1936 55.6833 28.545 55.6833 27.931 55.8466V55.8466Z" fill="#303030"/>
<path d="M18.7059 50.3968L19.035 53.6198C19.244 53.7057 19.4475 53.8035 19.6443 53.9128L21.6306 55.0145L22.9711 52.7408L23.7632 53.1745L19.4981 60.2417L16.7196 58.7064C15.8983 58.3096 15.2505 57.6449 14.8916 56.8312C14.7592 56.4645 14.7145 56.0738 14.7609 55.6883C14.8073 55.3027 14.9437 54.9322 15.1597 54.6043C15.443 54.0907 15.892 53.6794 16.4393 53.4323C16.9951 53.2109 17.6098 53.1657 18.1941 53.3034L17.8407 49.8577L18.7059 50.3968ZM17.3167 54.1004C17.0305 54.1694 16.7617 54.2933 16.5264 54.4646C16.2912 54.6359 16.0942 54.8511 15.9475 55.0973C15.8007 55.3435 15.7071 55.6157 15.6723 55.8975C15.6374 56.1793 15.662 56.465 15.7447 56.7374C16.0303 57.344 16.5255 57.8368 17.1461 58.1321L19.1081 59.2221L21.2407 55.706L19.2787 54.616C18.7148 54.2096 18.0204 54.0064 17.3167 54.0418V54.1004Z" fill="#303030"/>
<path d="M11.4917 44.9L12.04 44.3726L16.2443 48.5332L10.1512 54.2527L6.09314 50.2209L6.65371 49.6935L10.1024 53.1041L12.1863 51.0765L9.16408 48.0527L9.74902 47.5136L12.8321 50.5608L15.0988 48.4395L11.4917 44.9Z" fill="#303030"/>
<path d="M2.43727 40.2939L2.72974 38.6765L3.3025 38.7586L2.97347 40.4228L4.59424 39.8485L4.78922 40.3642L3.14407 40.9033L4.49675 42.005L4.10679 42.427L2.80286 41.2549L2.4982 42.9192L1.91326 42.8137L2.25448 41.1495L0.621515 41.712L0.438721 41.2549L2.07168 40.7041L0.719005 39.6141L1.12115 39.1922L2.43727 40.2939Z" fill="#303030"/>
</g>
<defs>
<clipPath id="clip0_1_6">
<rect width="84" height="65" fill="white"/>
</clipPath>
</defs>
</svg>
